<svg height="42.646484" width="49.564453" xmlns="http://www.w3.org/2000/svg"><path d="m4.640625 27.77929688c0-8.57226563 8.14257813-16.95117188 19.29296875-24.40625.2578125-.15039063.58007813-.27929688.83789063-.27929688.27929687 0 .6015625.12890625.83789062.27929688 11.171875 7.45507812 19.31445313 15.83398437 19.31445313 24.40625 0 6.85351562-4.74804688 11.7734375-11.12890625 11.7734375-3.6953125 0-7.36914063-2.19140625-9.0234375-5.62890625-1.6328125 3.4375-5.30664063 5.62890625-9.00195313 5.62890625-6.38085937 0-11.12890625-4.91992188-11.12890625-11.7734375zm1.05273438 0c0 6.29492187 4.27539062 10.72070312 10.07617187 10.72070312 3.88867188 0 6.68164063-2.38476562 8.3359375-5.45703125.21484375-.40820312.40820313-.58007812.66601563-.58007812.27929687 0 .47265625.171875.6875.58007812 1.6328125 3.07226563 4.44726562 5.45703125 8.3359375 5.45703125 5.80078125 0 10.07617187-4.42578125 10.07617187-10.72070312 0-8.1640625-8.3359375-16.5-18.84179687-23.50390625-.0859375-.06445313-.171875-.10742188-.2578125-.10742188-.06445313 0-.15039063.04296875-.23632813.10742188-10.50585937 7.00390625-18.84179687 15.33984375-18.84179687 23.50390625z" stroke="#000" transform="matrix(1 0 0 -1 0 42.646484)"/></svg>