<svg viewBox="0 0 20.6348 25.8301" xmlns="http://www.w3.org/2000/svg"><path d="m0 0h20.6348v25.8301h-20.6348z" opacity="0"/><g fill-opacity=".85"><path d="m14.635 2.8418h-8.99655c.03641-.79901.53797-1.25 1.37327-1.25h6.24998c.8353 0 1.3369.45099 1.3733 1.25z"/><path d="m16.6322 5.63132c-.314-.04992-.6472-.07468-.9974-.07468h-10.99613c-.35015 0-.68319.0246-.99717.07427.10645-.93796.74127-1.46099 1.77842-1.46099h9.44338c1.0373 0 1.6641.52318 1.7689 1.4614z"/><path d="m4.63867 24.2578h10.99613c2.041 0 3.0664-1.0156 3.0664-3.0273v-11.0743c0-2.01167-1.0254-3.02729-3.0664-3.02729h-10.99613c-2.04101 0-3.0664 1.00586-3.0664 3.02729v11.0743c0 2.0117 1.02539 3.0273 3.0664 3.0273zm.0293-1.5723c-.97656 0-1.52344-.5273-1.52344-1.5429v-10.9082c0-1.00588.54688-1.53323 1.52344-1.53323h10.94723c.9571 0 1.5137.52735 1.5137 1.53323v10.9082c0 1.0156-.5566 1.5429-1.5137 1.5429z"/></g></svg>